<?xml version="1.0" encoding="UTF-8" standalone="no"?>
<!-- Created with Inkscape (http://www.inkscape.org/) -->

<svg
   version="1.1"
   id="svg2"
   width="2829.3333"
   height="2829.3333"
   viewBox="0 0 2829.3333 2829.3333"
   sodipodi:docname="2887_R0lVIE5JQyA2NzEtMzI.eps"
   xmlns:inkscape="http://www.inkscape.org/namespaces/inkscape"
   xmlns:sodipodi="http://sodipodi.sourceforge.net/DTD/sodipodi-0.dtd"
   xmlns="http://www.w3.org/2000/svg"
   xmlns:svg="http://www.w3.org/2000/svg">
  <defs
     id="defs6" />
  <sodipodi:namedview
     id="namedview4"
     pagecolor="#ffffff"
     bordercolor="#000000"
     borderopacity="0.25"
     inkscape:showpageshadow="2"
     inkscape:pageopacity="0.0"
     inkscape:pagecheckerboard="0"
     inkscape:deskcolor="#d1d1d1" />
  <g
     id="g8"
     inkscape:groupmode="layer"
     inkscape:label="ink_ext_XXXXXX"
     transform="matrix(1.3333333,0,0,-1.3333333,0,2829.3333)">
    <g
       id="g10"
       transform="scale(0.1)">
      <path
         d="m 11983.3,2546 c -0.1,-81.4 -32.7,-153.9 -85.9,-207.3 -53.4,-53.3 -125.9,-85.8 -207.2,-85.9 h -0.1 v 2092.9 h 293.2 z m -972.8,2049.1 H 9373.39 c -8.19,209.2 -49.36,603.5 -220.36,1128.5 -105.3,323.5 -260.67,696.8 -486.83,1105.9 220.52,-157.8 438.68,-297.2 650.91,-413.3 466.76,-254.4 904.89,-403.4 1289.59,-404.3 279.8,0.2 579.2,66.6 890,185.9 335.3,128.8 684.5,319.5 1036.6,559.8 -220,-391 -372,-748.1 -475.6,-1058.4 C 11885.9,5185 11845,4799.1 11837,4595.1 h -271.6 z m 430.1,-2342.3 h -305.4 v 2092.9 h 305.4 z m -1137.7,2092.9 h 582.9 V 2252.8 h -582.9 z m -249.4,-2092.9 h -305.45 v 2092.9 h 305.45 z M 9229.95,2546 v 1799.7 h 268.64 V 2254.1 c -71.32,5.9 -134.8,36.8 -182.79,84.6 -53.25,53.4 -85.8,125.9 -85.85,207.3 z m -3246.18,7604.3 c -624.26,1036.7 -1035.13,2152.3 -1034.39,3166.5 0.04,1562.6 632.98,2976.1 1657,4000.3 687.2,687 1549.91,1197.7 2515.22,1459.5 -14.76,-9.2 -29.58,-18.2 -44.2,-27.8 -699.77,-456.3 -1285.2,-1209.3 -1697.73,-2149.2 -412.27,-940.1 -651.49,-2068.9 -651.58,-3282.8 0.09,-814.9 161.35,-1674.1 421.03,-2506.2 389.87,-1248.3 1000.94,-2435.4 1633.62,-3316.8 268.35,-373.5 540.22,-691.3 803.66,-937.1 -411.75,206 -861.59,513 -1311.67,894.3 -832.44,704.6 -1667.43,1662.4 -2290.96,2699.3 z M 9490.76,8500.1 c 168.77,-702.5 353.57,-1305 531.64,-1738.1 56.4,-136.8 111.9,-256.5 167,-358.3 -84.2,49.9 -173.2,112.7 -265.42,188.1 -308.39,251.3 -650.76,637.7 -986.65,1115 -504.3,716.2 -995.81,1637.4 -1359.65,2620.3 -364.14,982.8 -600.39,2027.7 -600.15,2989.7 -0.28,1574.7 415.44,2998.6 1079.36,4020.5 331.8,511.1 725.02,921.4 1156.69,1202.5 256.52,167 526.24,288.3 806.02,359.7 -34.72,-40.6 -68.77,-83.2 -101.75,-130.2 -158.06,-225.5 -298.9,-523.9 -424.46,-884.4 -187.92,-540.5 -340.26,-1220.8 -446.28,-1997.2 -105.98,-776.4 -165.31,-1648.7 -165.31,-2570.9 0.19,-1610.5 271.81,-3412 608.96,-4816.7 z M 10854.9,18881 c 76.9,-56.8 157.3,-142.2 236.4,-255 138.6,-197.3 272.8,-477.3 392.9,-823 180.5,-518.7 330.5,-1185.2 434.8,-1949.1 104.2,-763.9 163,-1625.7 163,-2537.1 0.2,-1583.5 -254.9,-3372.2 -581,-4759 -162.8,-693.2 -343.8,-1286.7 -516.6,-1700.2 -86.1,-206.5 -171,-368.1 -245,-470.5 -36.7,-51.1 -70.8,-86.9 -95.8,-105.9 -12.5,-9.6 -22.5,-15 -28.7,-17.4 -3.1,-1.3 -5.2,-1.9 -6.5,-2.1 l -1.4,0.5 c -8.2,3.1 -32.9,19.8 -62.2,53.6 -55.9,62.8 -127.5,179.4 -201.5,336.3 -130.6,275.1 -273.5,674.3 -412.34,1155 -417.15,1442.6 -800.1,3622.6 -799.71,5509.7 -0.2,1587.1 178.6,3024.2 464.16,4055.2 142.27,515.2 312.25,928.8 492.79,1204.1 89.9,137.6 182.2,240.1 270.1,304.9 88.5,64.9 169,92.8 248.4,93 79.3,-0.2 159.8,-28.1 248.2,-93 z M 11036,6390.2 c 27.1,47.7 54.1,99.1 81.3,154.8 143.7,296 289.4,704.7 429.4,1194.2 419.3,1467.8 784.4,3658.6 784.7,5577.6 -0.2,1606.2 -179.5,3060 -473.1,4121.7 -147.3,531.1 -322.1,964.2 -524.5,1274.1 -44.8,68.3 -91,130.5 -139,186.6 279.4,-71.4 548.7,-192.6 805,-359.4 647.5,-421.4 1208.4,-1134.6 1605.5,-2040.4 397.2,-905.4 630.6,-2001.5 630.5,-3182.6 0.1,-782.7 -147.7,-1619.7 -391.4,-2433.3 C 13479,9663.1 12897.3,8495.1 12286.1,7639 c -305.4,-428 -618.4,-778.1 -910.7,-1016.8 -117.6,-96.1 -231.5,-173.7 -339.4,-232 z m 3570.9,10926.9 c 1023.9,-1024.2 1656.9,-2437.7 1656.9,-4000.3 0.3,-774.1 -225.3,-1606.1 -599.6,-2416.8 -560.8,-1216.3 -1455.3,-2383.6 -2398.4,-3241.2 -471.4,-428.9 -954.9,-780.5 -1412,-1023 -64.7,-34.5 -128.9,-66.3 -192.4,-96.2 222.5,200.4 447.2,450.5 669.5,740.3 555.7,726.1 1092.2,1701.3 1492,2762.1 399.4,1060.7 662.2,2206.5 662.4,3274.8 -0.3,1618.6 -424.9,3085.7 -1119.6,4156.4 -347.5,535.2 -763.2,971.6 -1229.8,1275.6 -14.6,9.5 -29.4,18.5 -44.1,27.8 965.2,-261.9 1827.9,-772.5 2515.1,-1459.5 z M 12232.7,2546 v 1924.4 c 0,32.8 -13.3,65 -36.5,88.2 -23.3,23.2 -55.4,36.5 -88.2,36.5 h -21.3 c 8,185.7 46.7,543.5 207.6,1025.1 144,430.7 385.9,960.2 791.4,1552.9 35,28.8 70,57.9 104.9,87.5 853.7,724.2 1681,1699.8 2298,2762.8 616.4,1063 1024.1,2213.8 1024.7,3293.4 -0.1,3262.3 -2644.5,5906.5 -5906.6,5906.6 -3262.31,-0.1 -5906.68,-2644.3 -5906.78,-5906.6 0.29,-823.9 250.96,-1688.3 652.13,-2523.1 C 5954.49,9541.5 6896.8,8354 7869.77,7474 c 78.19,-70.7 156.58,-138.6 235.02,-205.2 417.05,-619.7 664.75,-1173.3 811.06,-1622.5 160.48,-492.8 199.56,-859.7 207.84,-1051.2 h -18.47 c -32.84,0 -64.94,-13.3 -88.18,-36.5 -23.23,-23.2 -36.53,-55.4 -36.53,-88.2 V 2546 c -0.06,-149.5 60.9,-285.9 158.87,-383.7 97.83,-98 234.25,-159 383.68,-158.9 h 100.26 554.88 832.3 554.9 124.8 c 149.4,-0.1 285.8,60.9 383.6,158.9 98,97.8 159,234.2 158.9,383.7"
         style="fill:#091311;fill-opacity:1;fill-rule:nonzero;stroke:none"
         id="path12" />
    </g>
  </g>
</svg>
